<?xml version="1.0" encoding="UTF-8"?><svg id="Livello_2" xmlns="http://www.w3.org/2000/svg" viewBox="0 0 316.82 336.03"><defs><style>.cls-1{stroke-width:14px;}.cls-1,.cls-2{stroke-miterlimit:10;}.cls-1,.cls-3{fill:none;stroke:#cd1414;}.cls-2{fill:#fff;stroke:#fff;stroke-width:.25px;}.cls-3{stroke-linecap:round;stroke-linejoin:round;stroke-width:10px;}.cls-4{fill:#cd1414;}</style></defs><g id="Livello_1-2"><ellipse class="cls-1" cx="207.48" cy="71.22" rx="47.09" ry="64.22"/><rect class="cls-4" x="98.15" y="73.33" width="218.67" height="213.32"/><ellipse class="cls-4" cx="150.45" cy="313.19" rx="23.45" ry="22.25" transform="translate(-175.86 193.83) rotate(-44.25)"/><ellipse class="cls-4" cx="273.7" cy="313.19" rx="23.45" ry="22.25" transform="translate(-140.89 279.83) rotate(-44.25)"/><g><line class="cls-3" x1="5" y1="160.34" x2="57.47" y2="160.34"/><line class="cls-3" x1="32.28" y1="195.42" x2="69.16" y2="195.42"/></g><g><path class="cls-2" d="M144.72,129.54c2.19,0,4.1,.18,5.74,.55,1.64,.36,2.96,1.03,3.96,2.01,1,.97,1.66,2.32,1.96,4.04,.3,1.72,.22,3.94-.26,6.66-.55,3.12-1.39,5.65-2.53,7.6-1.13,1.95-2.46,3.47-3.99,4.56-1.53,1.09-3.2,1.83-5.01,2.22-1.81,.39-3.65,.58-5.51,.58h-2.25c-.69,0-1.14,.03-1.35,.09-.21,.06-.34,.19-.37,.4l-2.12,12.03c-.07,.41-.31,.61-.72,.61h-9.66c-.41,0-.57-.2-.5-.61l7.07-40.11c.07-.41,.31-.61,.72-.61h14.83Zm-5.86,20.12c.85,0,1.6-.09,2.24-.27s1.21-.52,1.7-1c.49-.49,.91-1.16,1.27-2.01,.35-.85,.65-1.95,.88-3.28,.41-2.35,.32-3.92-.29-4.71-.61-.79-1.67-1.18-3.16-1.18h-2.07c-.41,0-.64,.16-.69,.49l-2.04,11.55c-.05,.29,.13,.43,.53,.43h1.64Z"/><path class="cls-2" d="M164.18,130.14c.07-.41,.31-.61,.72-.61h22.55c.4,0,.57,.2,.5,.61l-1.34,7.6c-.07,.4-.31,.61-.72,.61h-11.73c-.24,0-.39,.12-.43,.37l-1.14,6.44c-.04,.24,.06,.37,.3,.37h10.64c.4,0,.57,.2,.5,.61l-1.28,7.23c-.07,.41-.31,.61-.71,.61h-10.64c-.24,0-.39,.12-.43,.37l-1.25,7.11c-.04,.24,.06,.37,.3,.37h12.52c.4,0,.57,.2,.5,.61l-1.38,7.84c-.07,.41-.31,.61-.72,.61h-23.34c-.41,0-.57-.2-.5-.61l7.07-40.11Z"/><path class="cls-2" d="M207.2,170.86c-.37,0-.57-.2-.62-.61l-3.74-26.01c-.08-.45-.16-.74-.24-.88-.08-.14-.22-.21-.42-.21s-.34,.06-.4,.18c-.06,.12-.14,.45-.23,.97l-3.85,25.95c-.07,.41-.31,.61-.72,.61h-8.75c-.41,0-.57-.2-.5-.61l7.07-40.11c.07-.41,.31-.61,.72-.61h13.67c.2,0,.33,.07,.39,.21,.05,.14,.11,.32,.15,.52l2.75,24.37c.04,.45,.11,.72,.19,.82,.08,.1,.21,.15,.37,.15,.24,0,.42-.2,.53-.61l3.59-24.86c.07-.41,.31-.61,.72-.61h8.93c.4,0,.57,.2,.5,.61l-7.07,40.11c-.07,.41-.31,.61-.71,.61h-12.34Z"/><path class="cls-2" d="M247.74,170.86c-.37,0-.57-.2-.62-.61l-3.74-26.01c-.08-.45-.16-.74-.24-.88-.08-.14-.22-.21-.42-.21s-.34,.06-.4,.18c-.06,.12-.14,.45-.23,.97l-3.85,25.95c-.07,.41-.31,.61-.72,.61h-8.75c-.41,0-.57-.2-.5-.61l7.07-40.11c.07-.41,.31-.61,.72-.61h13.67c.2,0,.33,.07,.39,.21,.05,.14,.11,.32,.15,.52l2.75,24.37c.04,.45,.11,.72,.19,.82,.08,.1,.21,.15,.37,.15,.24,0,.42-.2,.53-.61l3.59-24.86c.07-.41,.31-.61,.72-.61h8.93c.4,0,.57,.2,.5,.61l-7.07,40.11c-.07,.41-.31,.61-.71,.61h-12.34Z"/><path class="cls-2" d="M296.13,130.14c.19-.41,.49-.61,.9-.61h9.48c.45,0,.63,.2,.56,.61-.04,.2-.28,.72-.73,1.55-.45,.83-1.05,1.86-1.79,3.1-.75,1.24-1.58,2.6-2.52,4.1-.93,1.5-1.91,3.04-2.94,4.62-1.03,1.58-2.05,3.14-3.07,4.68-1.02,1.54-1.97,2.94-2.84,4.19-1.02,1.42-1.77,2.5-2.25,3.25-.48,.75-.75,1.35-.83,1.79l-2.26,12.82c-.07,.41-.31,.61-.72,.61h-9.72c-.4,0-.57-.2-.5-.61l2.26-12.82c.09-.53,.08-1.03-.04-1.52l-1.35-4.07c-.88-3.04-1.68-5.82-2.39-8.33-.71-2.51-1.32-4.71-1.81-6.59-.5-1.88-.88-3.4-1.14-4.56-.26-1.15-.36-1.89-.31-2.22,.15-.41,.41-.61,.78-.61h9.72c.16,0,.33,.04,.5,.12,.17,.08,.27,.24,.31,.49,.05,.41,.14,1.02,.28,1.85,.14,.83,.3,1.78,.5,2.86s.4,2.2,.62,3.37c.22,1.17,.43,2.31,.65,3.4,.21,1.09,.4,2.08,.57,2.95,.17,.87,.32,1.51,.45,1.91,.01,.16,.14,.24,.38,.24,.2,0,.36-.08,.47-.24,.4-.65,1.02-1.74,1.86-3.28,.84-1.54,1.71-3.17,2.62-4.89,.91-1.72,1.78-3.35,2.6-4.89,.82-1.54,1.38-2.63,1.7-3.28Z"/><path class="cls-2" d="M132.32,221c-.04-.2-.09-.3-.15-.32s-.14-.03-.26-.03h-9.14c-.35,0-.58,.14-.66,.41l-3.27,8.2c-.23,.4-.52,.59-.87,.59h-9.67c-.39,0-.5-.2-.31-.59,.49-1.22,1.16-2.82,2.03-4.81,.86-1.99,1.81-4.19,2.85-6.61,1.04-2.42,2.12-4.93,3.25-7.55,1.13-2.62,2.24-5.16,3.32-7.64,1.09-2.48,2.11-4.79,3.08-6.93,.97-2.14,1.78-3.94,2.43-5.4,.19-.39,.46-.59,.81-.59h15.16c.35,0,.56,.2,.6,.59,.14,1.46,.3,3.31,.49,5.57s.39,4.68,.61,7.26c.21,2.57,.42,5.22,.61,7.93,.19,2.71,.38,5.27,.56,7.67,.19,2.4,.34,4.53,.46,6.4,.12,1.87,.21,3.23,.25,4.1,0,.4-.16,.59-.52,.59h-10.62c-.43,0-.65-.2-.66-.59l-.37-8.26Zm.16-8.26c.16,0,.25-.1,.29-.3-.01-.59-.02-1.5-.02-2.74,0-1.24-.01-2.54-.05-3.92-.03-1.38-.07-2.74-.1-4.1-.04-1.36-.08-2.45-.13-3.27-.03-.08-.08-.14-.18-.18-.09-.04-.33-.06-.73-.06-.35,0-.59,.02-.72,.06-.12,.04-.21,.1-.27,.18-.38,.83-.84,1.92-1.37,3.27-.53,1.36-1.08,2.72-1.64,4.1-.56,1.38-1.06,2.68-1.52,3.92-.45,1.24-.79,2.15-1.01,2.74-.03,.2,.03,.3,.18,.3h7.26Z"/><path class="cls-2" d="M185.1,229.08c-1.21,.39-2.55,.72-4.03,.97-1.48,.26-3.26,.39-5.35,.39-3.07,0-5.58-.44-7.52-1.33-1.95-.89-3.44-2.19-4.47-3.92-1.03-1.73-1.62-3.86-1.76-6.4-.14-2.54,.07-5.43,.65-8.7,.57-3.22,1.37-6.12,2.42-8.7,1.04-2.57,2.39-4.77,4.05-6.58,1.65-1.81,3.62-3.2,5.9-4.19,2.28-.98,4.95-1.48,8.02-1.48,1.73,0,3.37,.09,4.91,.27,1.54,.18,2.74,.42,3.58,.74,.11,.08,.17,.14,.21,.18,.03,.04,.03,.16,0,.35l-1.8,7.85c-.01,.08-.07,.18-.17,.3-.1,.12-.22,.14-.36,.06-.83-.2-1.79-.35-2.87-.47s-2.13-.18-3.15-.18c-1.34,0-2.48,.16-3.44,.47-.96,.31-1.78,.91-2.47,1.8s-1.27,2.09-1.76,3.63c-.49,1.54-.95,3.54-1.39,6.02-.4,2.28-.62,4.14-.66,5.57-.04,1.44,.14,2.57,.52,3.39,.39,.82,1,1.39,1.85,1.71,.85,.31,1.94,.47,3.28,.47,1.14,0,2.3-.07,3.49-.21,1.18-.14,2.19-.31,3.01-.5,.16-.04,.31-.05,.45-.03s.2,.13,.21,.32l-.86,7.55c-.02,.35-.18,.57-.47,.65Z"/><path class="cls-2" d="M212.18,221c-.04-.2-.09-.3-.15-.32s-.14-.03-.26-.03h-9.14c-.35,0-.58,.14-.66,.41l-3.27,8.2c-.23,.4-.52,.59-.87,.59h-9.67c-.39,0-.5-.2-.31-.59,.49-1.22,1.16-2.82,2.03-4.81,.86-1.99,1.81-4.19,2.85-6.61,1.04-2.42,2.12-4.93,3.25-7.55,1.13-2.62,2.24-5.16,3.32-7.64,1.09-2.48,2.11-4.79,3.08-6.93,.97-2.14,1.78-3.94,2.43-5.4,.19-.39,.46-.59,.81-.59h15.16c.35,0,.56,.2,.6,.59,.14,1.46,.3,3.31,.49,5.57s.39,4.68,.61,7.26,.42,5.22,.61,7.93c.19,2.71,.38,5.27,.56,7.67,.19,2.4,.34,4.53,.46,6.4,.12,1.87,.21,3.23,.25,4.1,0,.4-.16,.59-.52,.59h-10.62c-.43,0-.65-.2-.66-.59l-.37-8.26Zm.16-8.26c.16,0,.25-.1,.29-.3-.01-.59-.02-1.5-.02-2.74,0-1.24-.01-2.54-.05-3.92-.03-1.38-.07-2.74-.1-4.1-.04-1.36-.08-2.45-.13-3.27-.03-.08-.08-.14-.18-.18-.09-.04-.33-.06-.73-.06-.35,0-.59,.02-.72,.06-.12,.04-.21,.1-.27,.18-.38,.83-.84,1.92-1.37,3.27-.53,1.36-1.08,2.72-1.64,4.1-.56,1.38-1.06,2.68-1.52,3.92-.45,1.24-.79,2.15-1.01,2.74-.03,.2,.03,.3,.18,.3h7.26Z"/><path class="cls-2" d="M255.33,198.41c-.99-.2-2.08-.36-3.27-.5s-2.46-.21-3.8-.21c-1.46,0-2.5,.23-3.13,.68-.63,.45-1.05,1.25-1.25,2.39-.07,.39-.07,.74,0,1.03s.25,.67,.54,1.12c.29,.45,.75,1.01,1.36,1.68s1.45,1.55,2.51,2.65c1.29,1.37,2.29,2.56,3,3.57,.71,1,1.21,1.95,1.51,2.83s.42,1.79,.38,2.71c-.05,.92-.17,1.98-.38,3.16-.37,2.12-.99,3.88-1.84,5.28-.86,1.4-1.93,2.51-3.21,3.33s-2.78,1.41-4.47,1.74-3.56,.5-5.6,.5c-1.85,0-3.69-.09-5.53-.27-1.84-.18-3.37-.44-4.61-.8-.26-.08-.38-.22-.34-.41l1.79-7.49c.04-.24,.24-.33,.58-.3,1.1,.2,2.32,.37,3.66,.5,1.33,.14,2.63,.21,3.89,.21,1.49,0,2.54-.24,3.13-.71,.59-.47,.98-1.24,1.17-2.3,.11-.63,.14-1.18,.08-1.65-.05-.47-.26-.96-.62-1.47-.36-.51-.89-1.12-1.59-1.83-.7-.71-1.64-1.63-2.81-2.77-1.01-.98-1.81-1.89-2.41-2.71-.6-.83-1.03-1.67-1.29-2.54-.26-.86-.37-1.79-.34-2.77,.04-.98,.16-2.1,.39-3.36,.37-2.12,.99-3.85,1.86-5.19,.86-1.33,1.94-2.39,3.24-3.16,1.29-.77,2.81-1.3,4.56-1.59,1.74-.29,3.68-.44,5.8-.44,.9,0,1.82,.03,2.76,.09,.93,.06,1.8,.15,2.61,.27,.8,.12,1.54,.25,2.2,.38,.66,.14,1.16,.29,1.48,.44,.18,.08,.27,.17,.28,.27,0,.1,0,.19-.02,.27l-1.83,7.02c-.04,.24-.18,.36-.42,.36Z"/><path class="cls-2" d="M277.59,221c-.04-.2-.09-.3-.15-.32s-.14-.03-.26-.03h-9.14c-.35,0-.58,.14-.66,.41l-3.27,8.2c-.23,.4-.52,.59-.87,.59h-9.67c-.39,0-.5-.2-.31-.59,.49-1.22,1.16-2.82,2.03-4.81,.86-1.99,1.81-4.19,2.85-6.61,1.04-2.42,2.12-4.93,3.25-7.55,1.13-2.62,2.24-5.16,3.32-7.64,1.09-2.48,2.11-4.79,3.08-6.93,.97-2.14,1.78-3.94,2.43-5.4,.19-.39,.46-.59,.81-.59h15.16c.35,0,.56,.2,.6,.59,.14,1.46,.3,3.31,.49,5.57s.39,4.68,.61,7.26c.21,2.57,.42,5.22,.61,7.93,.19,2.71,.38,5.27,.56,7.67,.19,2.4,.34,4.53,.46,6.4,.12,1.87,.21,3.23,.25,4.1,0,.4-.16,.59-.52,.59h-10.62c-.43,0-.65-.2-.66-.59l-.37-8.26Zm.16-8.26c.16,0,.25-.1,.29-.3-.01-.59-.02-1.5-.02-2.74,0-1.24-.01-2.54-.05-3.92-.03-1.38-.07-2.74-.1-4.1-.04-1.36-.08-2.45-.13-3.27-.03-.08-.08-.14-.18-.18-.09-.04-.33-.06-.73-.06-.35,0-.59,.02-.72,.06-.12,.04-.21,.1-.27,.18-.38,.83-.84,1.92-1.37,3.27-.53,1.36-1.08,2.72-1.64,4.1-.56,1.38-1.06,2.68-1.52,3.92-.45,1.24-.79,2.15-1.01,2.74-.03,.2,.03,.3,.18,.3h7.26Z"/></g></g></svg>